<?xml version="1.0" standalone="no"?>
<!DOCTYPE svg PUBLIC "-//W3C//DTD SVG 20010904//EN"
 "http://www.w3.org/TR/2001/REC-SVG-20010904/DTD/svg10.dtd">
<svg version="1.0" xmlns="http://www.w3.org/2000/svg"
 width="451.000000pt" height="416.000000pt" viewBox="0 0 451.000000 416.000000"
 preserveAspectRatio="xMidYMid meet">

<g transform="translate(0.000000,416.000000) scale(0.100000,-0.100000)"
fill="rgb(17,106,123)" stroke="none">
<path d="M3360 3729 c-47 -5 -150 -15 -230 -24 -80 -8 -197 -20 -260 -26 -63
-6 -164 -19 -225 -29 -60 -10 -141 -21 -180 -25 -119 -11 -517 -74 -790 -126
-28 -5 -62 -17 -76 -27 -70 -45 -304 -257 -488 -440 -128 -127 -233 -223 -280
-255 -202 -135 -383 -287 -485 -406 l-21 -25 35 24 c19 13 51 38 70 56 75 70
412 286 425 272 2 -2 -14 -26 -35 -53 -57 -72 -49 -76 20 -12 81 75 175 142
245 172 133 59 418 112 538 100 l69 -6 91 68 c99 74 153 103 192 103 13 0 69
-23 124 -51 154 -79 317 -241 395 -395 87 -171 120 -448 69 -591 -4 -12 -3
-15 4 -8 45 43 101 361 88 495 -8 78 -46 236 -75 310 -50 128 -204 308 -335
395 -74 49 -190 96 -213 88 -9 -4 -58 -40 -108 -79 -148 -118 -328 -245 -342
-242 -7 2 -13 7 -13 11 0 4 49 49 108 100 59 51 136 118 172 150 37 31 81 67
99 78 35 23 41 39 15 39 -36 0 -261 -40 -356 -64 l-99 -24 39 40 c28 29 54 44
103 58 252 72 334 94 480 129 297 71 551 113 780 131 63 5 171 16 240 24 132
16 300 21 300 9 -1 -10 -110 -95 -210 -164 -41 -29 -109 -78 -150 -109 -148
-112 -164 -120 -222 -120 -86 0 -395 89 -405 117 -14 36 80 112 184 148 72 25
87 35 54 35 -33 0 -131 -36 -197 -71 -110 -59 -234 -177 -234 -221 0 -20 1
-20 18 -5 38 34 93 49 156 42 77 -8 203 -49 289 -91 66 -34 78 -49 55 -72 -28
-28 8 -21 109 22 212 91 385 205 661 436 88 73 109 97 96 109 -9 10 -201 10
-294 0z m-1611 -475 c-47 -52 -288 -263 -316 -277 -15 -8 -89 -34 -163 -57
-74 -24 -154 -51 -177 -61 -44 -19 -56 -13 -26 12 9 8 33 36 53 64 21 27 74
89 118 136 l81 86 113 37 c104 33 293 83 327 85 10 1 6 -8 -10 -25z"/>
<path d="M3484 3504 c-151 -122 -247 -190 -367 -258 -96 -54 -221 -107 -284
-121 -36 -7 -43 -21 -15 -29 84 -27 294 -32 418 -11 167 29 343 96 387 147 25
30 22 34 -26 30 -54 -5 -77 15 -77 64 0 46 14 70 50 89 27 14 33 14 60 0 68
-35 145 -162 226 -375 91 -236 129 -460 121 -705 -6 -189 -27 -272 -111 -450
-72 -151 -119 -218 -249 -352 -102 -105 -120 -118 -213 -165 -56 -28 -106 -48
-112 -44 -5 3 -13 17 -16 30 -13 51 -89 176 -136 224 -48 49 -109 80 -130 67
-6 -4 8 -27 34 -56 51 -56 61 -92 53 -177 -12 -133 -82 -236 -182 -268 -65
-21 -70 -25 -54 -35 25 -15 133 -9 215 12 100 26 342 128 429 182 167 102 313
261 461 503 32 53 35 56 29 24 -16 -74 -107 -242 -181 -332 -73 -88 -219 -228
-324 -309 -60 -46 -107 -85 -105 -87 7 -8 93 38 150 79 33 24 79 57 102 73 23
15 100 87 170 160 190 194 260 313 325 556 47 176 48 183 55 363 12 328 -42
602 -173 882 -25 55 -49 102 -53 105 -3 3 -19 24 -35 47 -16 24 -36 48 -44 55
-10 8 -9 2 5 -17 84 -121 183 -490 203 -752 5 -65 7 -128 3 -140 -9 -40 -23
-13 -23 46 0 66 -32 268 -60 377 -29 111 -96 273 -151 366 -84 140 -214 298
-245 298 -7 0 -65 -43 -130 -96z"/>
<path d="M2375 3533 c-11 -2 -87 -17 -170 -33 -151 -29 -428 -100 -421 -108 2
-2 39 2 80 9 89 15 222 3 321 -30 l59 -20 34 40 c18 21 60 60 93 85 75 58 76
73 4 57z"/>
<path d="M2320 3280 c0 -5 4 -10 8 -10 5 0 45 -34 89 -75 80 -74 177 -203 227
-302 66 -132 101 -386 77 -565 -15 -109 -71 -289 -110 -350 -39 -62 -58 -62
-168 -2 -157 85 -277 197 -380 352 -76 115 -133 227 -159 311 -13 43 -13 47 6
63 14 11 32 15 62 11 71 -7 178 -45 230 -79 26 -18 48 -29 48 -25 0 5 -24 30
-52 58 -151 142 -432 200 -772 158 -168 -20 -286 -53 -386 -106 -75 -40 -128
-81 -85 -64 117 44 325 50 498 14 55 -11 109 -25 120 -31 18 -9 16 -12 -21
-28 -151 -68 -443 -276 -521 -372 -59 -73 -50 -78 22 -12 64 58 189 145 266
184 121 61 390 150 456 150 29 0 126 -107 183 -203 110 -181 151 -305 173
-519 12 -113 6 -231 -17 -338 -13 -63 28 34 54 127 24 87 27 115 27 246 0 81
2 147 6 147 17 0 119 -106 147 -152 59 -99 61 -199 6 -309 -13 -26 -20 -49
-17 -53 9 -9 148 68 225 125 107 80 182 173 220 276 29 80 38 86 38 25 0 -97
-50 -252 -99 -307 -30 -34 -36 -49 -15 -37 53 29 167 191 204 289 42 112 52
182 54 353 1 154 -2 174 -32 300 -66 274 -216 510 -430 672 -97 74 -182 110
-182 78z"/>
<path d="M3692 3187 c-20 -23 -190 -94 -297 -123 -89 -24 -119 -27 -262 -28
-90 -1 -163 -4 -163 -7 0 -14 59 -20 214 -20 168 0 277 16 430 62 66 20 71 20
83 3 19 -26 53 -134 56 -179 l2 -39 -63 -17 c-86 -24 -218 -39 -337 -39 l-100
1 -30 47 c-16 26 -31 50 -33 53 -1 3 66 9 150 13 135 5 199 13 261 32 12 4 17
0 17 -13 0 -33 -149 -72 -275 -73 -63 -1 -76 -3 -61 -12 28 -16 297 -4 364 17
29 9 56 23 59 30 7 19 -14 105 -32 128 -12 17 -20 17 -161 -14 -121 -25 -180
-32 -311 -36 -90 -3 -163 -9 -163 -13 0 -4 7 -13 15 -20 8 -7 38 -56 67 -109
28 -53 56 -99 62 -103 15 -11 169 -9 311 2 194 16 357 57 371 95 13 32 -88
285 -139 349 -19 24 -25 26 -35 13z"/>
<path d="M2770 3072 c0 -5 22 -27 50 -49 101 -83 173 -193 225 -348 98 -294
66 -552 -113 -915 -74 -150 -108 -183 -259 -256 -65 -32 -131 -66 -146 -77
-16 -11 -31 -17 -34 -13 -10 10 48 89 106 144 55 53 54 59 -4 17 -16 -11 -51
-33 -77 -48 -67 -39 -143 -129 -191 -227 -38 -77 -42 -92 -42 -160 1 -89 30
-161 78 -190 l30 -18 -69 -35 c-86 -43 -260 -104 -269 -95 -4 4 4 21 19 38 35
43 35 64 -1 56 -108 -27 -171 -35 -259 -36 -96 0 -214 16 -214 29 0 3 27 21
60 40 85 49 200 169 200 209 0 8 -19 -2 -42 -23 -106 -90 -220 -119 -465 -120
-175 0 -181 -1 -165 -18 26 -29 208 -113 317 -146 105 -32 247 -61 296 -61 16
0 29 -4 29 -10 0 -21 -146 -32 -227 -17 -66 11 -51 -9 20 -26 115 -29 250 -39
335 -27 283 41 536 182 666 369 35 50 29 62 -10 26 -73 -68 -157 -84 -193 -39
-39 50 -22 125 45 202 67 76 135 123 277 192 69 32 139 72 157 87 40 33 154
261 199 398 61 186 87 408 61 537 -39 199 -124 366 -260 512 -47 51 -130 113
-130 98z"/>
<path d="M1882 2995 c-44 -25 -122 -86 -122 -96 0 -3 46 -11 103 -17 131 -14
246 -55 339 -118 75 -52 113 -92 178 -188 59 -87 58 -90 -54 -83 -113 6 -198
37 -304 110 -40 27 -75 48 -77 45 -3 -3 9 -27 27 -53 40 -59 187 -174 278
-218 60 -29 73 -31 175 -31 l110 -1 -2 39 c-5 74 -126 268 -248 395 -95 99
-221 186 -336 230 -21 7 -34 5 -67 -14z"/>
<path d="M3831 2739 c-14 -5 -81 -21 -150 -35 -109 -21 -152 -25 -313 -24
-104 0 -188 -4 -188 -9 0 -5 6 -24 14 -42 13 -32 46 -177 49 -217 1 -17 13
-19 176 -19 143 1 195 -4 276 -21 76 -17 101 -19 107 -9 9 14 -1 141 -13 175
-10 26 -39 28 -249 23 -173 -5 -213 -26 -52 -27 140 -2 205 -18 210 -53 3 -19
0 -23 -14 -17 -10 4 -98 10 -196 13 -175 6 -178 6 -178 28 0 13 -3 36 -6 52
l-6 29 79 12 c67 10 300 18 414 13 35 -1 35 -1 53 -72 14 -53 17 -88 12 -142
-8 -93 -15 -120 -30 -108 -18 14 -282 62 -385 70 -51 4 -114 4 -140 1 -41 -5
-37 -6 39 -12 80 -6 326 -63 468 -109 77 -26 84 -21 106 66 29 118 17 287 -30
404 -18 44 -17 44 -53 30z"/>
<path d="M1173 2630 c-130 -14 -278 -52 -344 -85 -38 -20 -37 -27 2 -13 42 15
205 4 253 -16 l39 -16 -70 -73 c-70 -74 -166 -217 -210 -315 -32 -69 -25 -88
10 -24 99 183 316 381 536 492 51 25 61 34 49 41 -24 13 -182 19 -265 9z"/>
<path d="M670 2493 c-54 -32 -117 -78 -228 -167 -46 -36 -89 -66 -96 -66 -6 0
-21 7 -33 15 -20 14 -21 13 -33 -36 -19 -78 0 -195 46 -291 10 -21 21 -38 24
-38 4 0 5 33 2 74 -2 41 -1 92 3 113 l8 38 14 -34 c16 -38 25 -33 43 24 34
108 105 207 226 318 46 42 81 77 77 77 -5 0 -28 -12 -53 -27z"/>
<path d="M1610 2457 c-102 -43 -264 -133 -365 -205 -74 -53 -282 -229 -300
-254 -31 -45 -13 -39 49 16 120 105 449 290 611 342 l84 28 41 -29 c107 -74
187 -196 256 -390 29 -79 29 -84 28 -290 l0 -210 -33 -100 c-18 -55 -40 -113
-48 -128 -8 -16 -12 -31 -10 -34 13 -13 100 192 128 302 29 113 30 128 26 260
-4 105 -12 164 -31 237 -26 99 -116 296 -175 382 -39 56 -108 116 -135 116
-12 0 -68 -20 -126 -43z"/>
<path d="M2040 2466 c0 -24 81 -141 160 -229 61 -69 251 -187 302 -187 21 0
30 43 26 125 l-3 60 -53 6 c-131 16 -284 94 -399 202 -18 17 -33 28 -33 23z"/>
<path d="M752 2415 c-88 -21 -88 -35 0 -35 42 0 95 -7 118 -15 23 -8 50 -15
59 -15 13 0 41 34 59 73 6 12 -179 6 -236 -8z"/>
<path d="M3335 2299 c106 -12 229 -56 359 -126 81 -44 106 -62 106 -78 -1 -68
-80 -262 -102 -249 -7 4 -71 47 -143 95 -71 47 -156 97 -188 110 -52 21 -58
25 -52 47 3 13 9 38 12 54 6 28 7 29 46 22 61 -10 154 -42 222 -76 77 -38 81
-42 67 -72 l-11 -25 -58 25 c-76 34 -217 84 -222 79 -2 -2 21 -15 50 -28 30
-13 98 -54 152 -91 55 -36 103 -66 109 -66 18 0 59 108 56 147 -3 38 -4 38
-125 100 -70 35 -153 68 -192 77 -69 16 -166 24 -174 16 -3 -3 -6 -56 -8 -119
l-4 -115 40 -12 c90 -26 238 -112 349 -201 89 -72 85 -72 142 13 46 71 94 201
101 280 l6 62 -79 30 c-44 17 -106 37 -139 46 -33 8 -87 25 -120 37 -43 15
-91 22 -170 24 l-110 4 80 -10z"/>
<path d="M373 1935 c20 -287 184 -561 462 -772 101 -77 249 -163 260 -151 2 2
-18 22 -46 43 -112 85 -175 200 -213 387 -28 137 -15 327 29 432 21 49 13 56
-21 20 -50 -54 -104 -214 -119 -352 -7 -63 -7 -63 -28 -45 -30 27 -80 109
-112 186 -22 52 -40 78 -77 109 -49 41 -84 97 -108 173 -24 75 -33 65 -27 -30z"/>
<path d="M3167 1876 c-25 -59 -44 -112 -41 -119 2 -7 23 -25 46 -41 22 -16 82
-69 134 -118 104 -100 103 -100 167 -29 66 73 66 80 14 126 -51 45 -138 99
-177 110 -19 6 -6 -12 53 -73 42 -44 77 -84 77 -89 0 -5 -5 -14 -11 -20 -9 -9
-26 4 -66 48 -30 32 -73 69 -94 81 -21 12 -39 25 -39 29 0 6 48 108 55 117 1
2 27 -8 56 -21 57 -26 140 -93 204 -165 33 -37 36 -46 27 -66 -17 -39 -111
-145 -151 -172 l-39 -25 -88 89 c-50 50 -115 103 -148 121 -69 38 -83 36 -25
-5 62 -43 146 -141 177 -206 26 -56 29 -58 57 -53 101 19 304 217 305 298 0
24 -81 110 -153 162 -81 60 -197 116 -249 122 l-44 5 -47 -106z"/>
</g>
</svg>
